<svg width="264" height="720" xmlns="http://www.w3.org/2000/svg" xmlns:xlink="http://www.w3.org/1999/xlink" xml:space="preserve" overflow="hidden"><g transform="translate(-508 0)"><g><path d="M323.649 12.3986C323.649 8.43203 326.865 5.2165 330.831 5.2165L529.665 5.2165C533.629 5.2165 536.845 8.43203 536.845 12.3986L536.845 41.1272C536.845 45.0937 533.629 48.3093 529.665 48.3093L330.831 48.3093C326.865 48.3093 323.649 45.0937 323.649 41.1272Z" stroke="#042433" stroke-width="1.36082" stroke-linecap="butt" stroke-linejoin="miter" stroke-miterlimit="8" stroke-opacity="1" fill="#E5F2FF" fill-rule="evenodd" fill-opacity="1" transform="matrix(1 0 0 1.0008 234.021 34.5019)"/><text fill="#000000" fill-opacity="1" font-family="Aptos,Aptos_MSFontService,sans-serif" font-style="normal" font-variant="normal" font-weight="400" font-stretch="normal" font-size="32" text-anchor="start" direction="ltr" writing-mode="lr-tb" unicode-bidi="normal" text-decoration="none" transform="matrix(0.453608 0 0 0.453972 588.365 57)">Flash .</text><text fill="#000000" fill-opacity="1" font-family="Aptos,Aptos_MSFontService,sans-serif" font-style="normal" font-variant="normal" font-weight="400" font-stretch="normal" font-size="32" text-anchor="start" direction="ltr" writing-mode="lr-tb" unicode-bidi="normal" text-decoration="none" transform="matrix(0.453608 0 0 0.453972 629.027 57)">tflite</text><text fill="#000000" fill-opacity="1" font-family="Aptos,Aptos_MSFontService,sans-serif" font-style="normal" font-variant="normal" font-weight="400" font-stretch="normal" font-size="32" text-anchor="start" direction="ltr" writing-mode="lr-tb" unicode-bidi="normal" text-decoration="none" transform="matrix(0.453608 0 0 0.453972 660.48 57)">model &amp; .</text><text fill="#000000" fill-opacity="1" font-family="Aptos,Aptos_MSFontService,sans-serif" font-style="normal" font-variant="normal" font-weight="400" font-stretch="normal" font-size="32" text-anchor="start" direction="ltr" writing-mode="lr-tb" unicode-bidi="normal" text-decoration="none" transform="matrix(0.453608 0 0 0.453972 719.79 57)">rgb</text><text fill="#000000" fill-opacity="1" font-family="Aptos,Aptos_MSFontService,sans-serif" font-style="normal" font-variant="normal" font-weight="400" font-stretch="normal" font-size="32" text-anchor="start" direction="ltr" writing-mode="lr-tb" unicode-bidi="normal" text-decoration="none" transform="matrix(0.453608 0 0 0.453972 616.448 74)">images to MCU</text><path d="M323.649 66.3783C323.649 62.4115 326.865 59.1959 330.832 59.1959L529.665 59.1959C533.629 59.1959 536.845 62.4115 536.845 66.3783L536.845 95.1062C536.845 99.073 533.629 102.289 529.665 102.289L330.832 102.289C326.865 102.289 323.649 99.073 323.649 95.1062Z" stroke="#042433" stroke-width="1.36082" stroke-linecap="butt" stroke-linejoin="miter" stroke-miterlimit="8" stroke-opacity="1" fill="#E5F2FF" fill-rule="evenodd" fill-opacity="1" transform="matrix(1 0 0 1.0008 234.021 34.5019)"/><text fill="#000000" fill-opacity="1" font-family="Aptos,Aptos_MSFontService,sans-serif" font-style="normal" font-variant="normal" font-weight="400" font-stretch="normal" font-size="32" text-anchor="start" direction="ltr" writing-mode="lr-tb" unicode-bidi="normal" text-decoration="none" transform="matrix(0.453608 0 0 0.453972 575.521 111)">Load model (TFLM) to RAM + </text><text fill="#000000" fill-opacity="1" font-family="Aptos,Aptos_MSFontService,sans-serif" font-style="normal" font-variant="normal" font-weight="400" font-stretch="normal" font-size="32" text-anchor="start" direction="ltr" writing-mode="lr-tb" unicode-bidi="normal" text-decoration="none" transform="matrix(0.453608 0 0 0.453972 613.655 128)">allocate tensors</text><path d="M323.649 121.34C323.649 117.332 326.899 114.082 330.907 114.082L529.588 114.082C533.598 114.082 536.845 117.332 536.845 121.34L536.845 150.371C536.845 154.379 533.598 157.629 529.588 157.629L330.907 157.629C326.899 157.629 323.649 154.379 323.649 150.371Z" stroke="#042433" stroke-width="1.36082" stroke-linecap="butt" stroke-linejoin="miter" stroke-miterlimit="8" stroke-opacity="1" fill="#E5F2FF" fill-rule="evenodd" fill-opacity="1" transform="matrix(1 0 0 1.0008 234.021 34.5019)"/><text fill="#000000" fill-opacity="1" font-family="Aptos,Aptos_MSFontService,sans-serif" font-style="normal" font-variant="normal" font-weight="400" font-stretch="normal" font-size="32" text-anchor="start" direction="ltr" writing-mode="lr-tb" unicode-bidi="normal" text-decoration="none" transform="matrix(0.453608 0 0 0.453972 595.733 175)">Loop over .</text><text fill="#000000" fill-opacity="1" font-family="Aptos,Aptos_MSFontService,sans-serif" font-style="normal" font-variant="normal" font-weight="400" font-stretch="normal" font-size="32" text-anchor="start" direction="ltr" writing-mode="lr-tb" unicode-bidi="normal" text-decoration="none" transform="matrix(0.453608 0 0 0.453972 664.21 175)">rgb</text><text fill="#000000" fill-opacity="1" font-family="Aptos,Aptos_MSFontService,sans-serif" font-style="normal" font-variant="normal" font-weight="400" font-stretch="normal" font-size="32" text-anchor="start" direction="ltr" writing-mode="lr-tb" unicode-bidi="normal" text-decoration="none" transform="matrix(0.453608 0 0 0.453972 686.977 175)">images</text><path d="M323.649 235.649C323.649 231.641 326.899 228.392 330.907 228.392L529.588 228.392C533.598 228.392 536.845 231.641 536.845 235.649L536.845 264.68C536.845 268.689 533.598 271.938 529.588 271.938L330.907 271.938C326.899 271.938 323.649 268.689 323.649 264.68Z" stroke="#042433" stroke-width="1.36082" stroke-linecap="butt" stroke-linejoin="miter" stroke-miterlimit="8" stroke-opacity="1" fill="#E5F2FF" fill-rule="evenodd" fill-opacity="1" transform="matrix(1 0 0 1.0008 234.021 34.5019)"/><text fill="#000000" fill-opacity="1" font-family="Aptos,Aptos_MSFontService,sans-serif" font-style="normal" font-variant="normal" font-weight="400" font-stretch="normal" font-size="32" text-anchor="start" direction="ltr" writing-mode="lr-tb" unicode-bidi="normal" text-decoration="none" transform="matrix(0.453608 0 0 0.453972 580.031 290)">Copy image to input tensor</text><path d="M323.649 178.42C323.649 174.453 326.865 171.237 330.832 171.237L529.665 171.237C533.629 171.237 536.845 174.453 536.845 178.42L536.845 207.147C536.845 211.114 533.629 214.33 529.665 214.33L330.832 214.33C326.865 214.33 323.649 211.114 323.649 207.147Z" stroke="#042433" stroke-width="1.36082" stroke-linecap="butt" stroke-linejoin="miter" stroke-miterlimit="8" stroke-opacity="1" fill="#E5F2FF" fill-rule="evenodd" fill-opacity="1" transform="matrix(1 0 0 1.0008 234.021 34.5019)"/><text fill="#000000" fill-opacity="1" font-family="Aptos,Aptos_MSFontService,sans-serif" font-style="normal" font-variant="normal" font-weight="400" font-stretch="normal" font-size="32" text-anchor="start" direction="ltr" writing-mode="lr-tb" unicode-bidi="normal" text-decoration="none" transform="matrix(0.453608 0 0 0.453972 618.978 232)">Acquire mutex</text><path d="M323.196 295.526C323.196 291.518 326.446 288.268 330.454 288.268L530.041 288.268C534.051 288.268 537.299 291.518 537.299 295.526L537.299 324.557C537.299 328.565 534.051 331.814 530.041 331.814L330.454 331.814C326.446 331.814 323.196 328.565 323.196 324.557Z" stroke="#042433" stroke-width="1.36082" stroke-linecap="butt" stroke-linejoin="miter" stroke-miterlimit="8" stroke-opacity="1" fill="#FDE7D0" fill-rule="evenodd" fill-opacity="1" transform="matrix(1 0 0 1.0008 234.021 34.5019)"/><text fill="#000000" fill-opacity="1" font-family="Aptos,Aptos_MSFontService,sans-serif" font-style="normal" font-variant="normal" font-weight="400" font-stretch="normal" font-size="32" text-anchor="start" direction="ltr" writing-mode="lr-tb" unicode-bidi="normal" text-decoration="none" transform="matrix(0.453608 0 0 0.453972 565.813 350)">Invoke MCUNet</text><text fill="#000000" fill-opacity="1" font-family="Aptos,Aptos_MSFontService,sans-serif" font-style="normal" font-variant="normal" font-weight="400" font-stretch="normal" font-size="32" text-anchor="start" direction="ltr" writing-mode="lr-tb" unicode-bidi="normal" text-decoration="none" transform="matrix(0.453608 0 0 0.453972 663.012 350)">-</text><text fill="#000000" fill-opacity="1" font-family="Aptos,Aptos_MSFontService,sans-serif" font-style="normal" font-variant="normal" font-weight="400" font-stretch="normal" font-size="32" text-anchor="start" direction="ltr" writing-mode="lr-tb" unicode-bidi="normal" text-decoration="none" transform="matrix(0.453608 0 0 0.453972 667.281 350)">YOLOv2 (TFLM)</text><path d="M323.196 351.773C323.196 347.765 326.446 344.515 330.454 344.515L530.041 344.515C534.051 344.515 537.299 347.765 537.299 351.773L537.299 380.804C537.299 384.812 534.051 388.062 530.041 388.062L330.454 388.062C326.446 388.062 323.196 384.812 323.196 380.804Z" stroke="#042433" stroke-width="1.36082" stroke-linecap="butt" stroke-linejoin="miter" stroke-miterlimit="8" stroke-opacity="1" fill="#FDE7D0" fill-rule="evenodd" fill-opacity="1" transform="matrix(1 0 0 1.0008 234.021 34.5019)"/><text fill="#000000" fill-opacity="1" font-family="Aptos,Aptos_MSFontService,sans-serif" font-style="normal" font-variant="normal" font-weight="400" font-stretch="normal" font-size="32" text-anchor="start" direction="ltr" writing-mode="lr-tb" unicode-bidi="normal" text-decoration="none" transform="matrix(0.453608 0 0 0.453972 596.958 397)">Decode &amp; dequantize </text><text fill="#000000" fill-opacity="1" font-family="Aptos,Aptos_MSFontService,sans-serif" font-style="normal" font-variant="normal" font-weight="400" font-stretch="normal" font-size="32" text-anchor="start" direction="ltr" writing-mode="lr-tb" unicode-bidi="normal" text-decoration="none" transform="matrix(0.453608 0 0 0.453972 620.205 414)">YOLO outputs</text><path d="M323.196 407.038C323.196 403.071 326.411 399.856 330.378 399.856L530.118 399.856C534.083 399.856 537.299 403.071 537.299 407.038L537.299 435.766C537.299 439.733 534.083 442.948 530.118 442.948L330.378 442.948C326.411 442.948 323.196 439.733 323.196 435.766Z" stroke="#042433" stroke-width="1.36082" stroke-linecap="butt" stroke-linejoin="miter" stroke-miterlimit="8" stroke-opacity="1" fill="#FDE7D0" fill-rule="evenodd" fill-opacity="1" transform="matrix(1 0 0 1.0008 234.021 34.5019)"/><text fill="#000000" fill-opacity="1" font-family="Aptos,Aptos_MSFontService,sans-serif" font-style="normal" font-variant="normal" font-weight="400" font-stretch="normal" font-size="32" text-anchor="start" direction="ltr" writing-mode="lr-tb" unicode-bidi="normal" text-decoration="none" transform="matrix(0.453608 0 0 0.453972 594.141 452)">Post</text><text fill="#000000" fill-opacity="1" font-family="Aptos,Aptos_MSFontService,sans-serif" font-style="normal" font-variant="normal" font-weight="400" font-stretch="normal" font-size="32" text-anchor="start" direction="ltr" writing-mode="lr-tb" unicode-bidi="normal" text-decoration="none" transform="matrix(0.453608 0 0 0.453972 621.53 452)">-</text><text fill="#000000" fill-opacity="1" font-family="Aptos,Aptos_MSFontService,sans-serif" font-style="normal" font-variant="normal" font-weight="400" font-stretch="normal" font-size="32" text-anchor="start" direction="ltr" writing-mode="lr-tb" unicode-bidi="normal" text-decoration="none" transform="matrix(0.453608 0 0 0.453972 626.52 452)">processing: Non</text><text fill="#000000" fill-opacity="1" font-family="Aptos,Aptos_MSFontService,sans-serif" font-style="normal" font-variant="normal" font-weight="400" font-stretch="normal" font-size="32" text-anchor="start" direction="ltr" writing-mode="lr-tb" unicode-bidi="normal" text-decoration="none" transform="matrix(0.453608 0 0 0.453972 728.721 452)">-</text><text fill="#000000" fill-opacity="1" font-family="Aptos,Aptos_MSFontService,sans-serif" font-style="normal" font-variant="normal" font-weight="400" font-stretch="normal" font-size="32" text-anchor="start" direction="ltr" writing-mode="lr-tb" unicode-bidi="normal" text-decoration="none" transform="matrix(0.453608 0 0 0.453972 571.433 469)">Maximum Suppression (NMS)</text><path d="M323.196 464.191C323.196 460.226 326.411 457.01 330.378 457.01L530.118 457.01C534.083 457.01 537.299 460.226 537.299 464.191L537.299 492.922C537.299 496.887 534.083 500.103 530.118 500.103L330.378 500.103C326.411 500.103 323.196 496.887 323.196 492.922Z" stroke="#042433" stroke-width="1.36082" stroke-linecap="butt" stroke-linejoin="miter" stroke-miterlimit="8" stroke-opacity="1" fill="#E5F2FF" fill-rule="evenodd" fill-opacity="1" transform="matrix(1 0 0 1.0008 234.021 34.5019)"/><text fill="#000000" fill-opacity="1" font-family="Aptos,Aptos_MSFontService,sans-serif" font-style="normal" font-variant="normal" font-weight="400" font-stretch="normal" font-size="32" text-anchor="start" direction="ltr" writing-mode="lr-tb" unicode-bidi="normal" text-decoration="none" transform="matrix(0.453608 0 0 0.453972 579.027 509)">Pack detections into Binary </text><text fill="#000000" fill-opacity="1" font-family="Aptos,Aptos_MSFontService,sans-serif" font-style="normal" font-variant="normal" font-weight="400" font-stretch="normal" font-size="32" text-anchor="start" direction="ltr" writing-mode="lr-tb" unicode-bidi="normal" text-decoration="none" transform="matrix(0.453608 0 0 0.453972 610.575 527)">Detection Packet</text><path d="M323.196 519.985C323.196 516.02 326.411 512.804 330.378 512.804L530.118 512.804C534.083 512.804 537.299 516.02 537.299 519.985L537.299 548.716C537.299 552.681 534.083 555.897 530.118 555.897L330.378 555.897C326.411 555.897 323.196 552.681 323.196 548.716Z" stroke="#042433" stroke-width="1.36082" stroke-linecap="butt" stroke-linejoin="miter" stroke-miterlimit="8" stroke-opacity="1" fill="#E5F2FF" fill-rule="evenodd" fill-opacity="1" transform="matrix(1 0 0 1.0008 234.021 34.5019)"/><text fill="#000000" fill-opacity="1" font-family="Aptos,Aptos_MSFontService,sans-serif" font-style="normal" font-variant="normal" font-weight="400" font-stretch="normal" font-size="32" text-anchor="start" direction="ltr" writing-mode="lr-tb" unicode-bidi="normal" text-decoration="none" transform="matrix(0.453608 0 0 0.453972 588.031 574)">Send UDP packet to host</text><path d="M356.074 604.819 274.573 604.819 274.573 135.175 319.113 135.175 319.113 136.536 275.254 136.536 275.934 135.856 275.934 604.138 275.254 603.458 356.074 603.458ZM318.206 133.134 323.649 135.856 318.206 138.577Z" fill="#156082" fill-rule="nonzero" fill-opacity="1" transform="matrix(1 0 0 1.0008 234.021 34.5019)"/><path d="M0.680403-0.00372615 0.715494 6.40422-0.645308 6.41166-0.680403 0.00372615ZM2.75173 5.48585 0.0599334 10.944-2.69148 5.51565Z" fill="#156082" fill-rule="nonzero" fill-opacity="1" transform="matrix(-1 0 0 1.0008 664.328 82.8499)"/><path d="M430.928 102.289 430.928 109.605 429.567 109.605 429.567 102.289ZM432.969 108.698 430.247 114.141 427.526 108.698Z" fill="#156082" fill-rule="nonzero" fill-opacity="1" transform="matrix(1 0 0 1.0008 234.021 34.5019)"/><path d="M430.928 157.623 431.002 166.755 429.641 166.765 429.567 157.634ZM433.036 165.831 430.358 171.296 427.592 165.875Z" fill="#156082" fill-rule="nonzero" fill-opacity="1" transform="matrix(1 0 0 1.0008 234.021 34.5019)"/><path d="M400.024-31.9794 460.018-31.9794C467.874-31.9794 474.247-26.3945 474.247-19.5052 474.247-12.6158 467.874-7.03093 460.018-7.03093L400.024-7.03093C392.165-7.03093 385.794-12.6158 385.794-19.5052 385.794-26.3945 392.165-31.9794 400.024-31.9794Z" stroke="#042433" stroke-width="1.36082" stroke-linecap="butt" stroke-linejoin="miter" stroke-miterlimit="8" stroke-opacity="1" fill="#4B5563" fill-rule="evenodd" fill-opacity="1" transform="matrix(1 0 0 1.0008 234.021 34.5019)"/><text fill="#FFFFFF" fill-opacity="1" font-family="Aptos,Aptos_MSFontService,sans-serif" font-style="normal" font-variant="normal" font-weight="400" font-stretch="normal" font-size="36" text-anchor="start" direction="ltr" writing-mode="lr-tb" unicode-bidi="normal" text-decoration="none" transform="matrix(0.453608 0 0 0.453972 646.947 20)">Start</text><path d="M400.024 652.515 460.018 652.515C467.874 652.515 474.247 658.099 474.247 664.99 474.247 671.88 467.874 677.464 460.018 677.464L400.024 677.464C392.165 677.464 385.794 671.88 385.794 664.99 385.794 658.099 392.165 652.515 400.024 652.515Z" stroke="#042433" stroke-width="1.36082" stroke-linecap="butt" stroke-linejoin="miter" stroke-miterlimit="8" stroke-opacity="1" fill="#4B5563" fill-rule="evenodd" fill-opacity="1" transform="matrix(1 0 0 1.0008 234.021 34.5019)"/><text fill="#FFFFFF" fill-opacity="1" font-family="Aptos,Aptos_MSFontService,sans-serif" font-style="normal" font-variant="normal" font-weight="400" font-stretch="normal" font-size="36" text-anchor="start" direction="ltr" writing-mode="lr-tb" unicode-bidi="normal" text-decoration="none" transform="matrix(0.453608 0 0 0.453972 650.318 705)">End</text><path d="M355.856 604.206 430.021 569.959 504.186 604.206 430.021 638.454Z" stroke="#042433" stroke-width="1.36082" stroke-linecap="butt" stroke-linejoin="miter" stroke-miterlimit="8" stroke-opacity="1" fill="#F3F4F6" fill-rule="evenodd" fill-opacity="1" transform="matrix(1 0 0 1.0008 234.021 34.5019)"/><text fill="#000000" fill-opacity="1" font-family="Aptos,Aptos_MSFontService,sans-serif" font-style="normal" font-variant="normal" font-weight="400" font-stretch="normal" font-size="32" text-anchor="start" direction="ltr" writing-mode="lr-tb" unicode-bidi="normal" text-decoration="none" transform="matrix(0.453608 0 0 0.453972 648.037 635)">More </text><text fill="#000000" fill-opacity="1" font-family="Aptos,Aptos_MSFontService,sans-serif" font-style="normal" font-variant="normal" font-weight="400" font-stretch="normal" font-size="32" text-anchor="start" direction="ltr" writing-mode="lr-tb" unicode-bidi="normal" text-decoration="none" transform="matrix(0.453608 0 0 0.453972 637.871 652)">images?</text><path d="M430.928 214.33 430.928 223.863 429.567 223.863 429.567 214.33ZM432.969 222.956 430.247 228.399 427.526 222.956Z" fill="#156082" fill-rule="nonzero" fill-opacity="1" transform="matrix(1 0 0 1.0008 234.021 34.5019)"/><path d="M0.680399-0.0045481 0.760873 12.0345-0.599924 12.0436-0.680399 0.0045481ZM2.796 11.1136 0.110795 16.575-2.64718 11.15Z" fill="#156082" fill-rule="nonzero" fill-opacity="1" transform="matrix(-1 0 0 1.0008 664.379 306.658)"/><path d="M430.928 331.814 430.928 340.35 429.567 340.35 429.567 331.814ZM432.969 339.443 430.247 344.887 427.526 339.443Z" fill="#156082" fill-rule="nonzero" fill-opacity="1" transform="matrix(1 0 0 1.0008 234.021 34.5019)"/><path d="M430.928 388.062 430.928 395.379 429.567 395.379 429.567 388.062ZM432.969 394.471 430.247 399.915 427.526 394.471Z" fill="#156082" fill-rule="nonzero" fill-opacity="1" transform="matrix(1 0 0 1.0008 234.021 34.5019)"/><path d="M430.928 442.948 430.928 452.249 429.567 452.249 429.567 442.948ZM432.969 451.342 430.247 456.784 427.526 451.342Z" fill="#156082" fill-rule="nonzero" fill-opacity="1" transform="matrix(1 0 0 1.0008 234.021 34.5019)"/><path d="M430.928 500.103 430.928 508.186 429.567 508.186 429.567 500.103ZM432.969 507.279 430.247 512.722 427.526 507.279Z" fill="#156082" fill-rule="nonzero" fill-opacity="1" transform="matrix(1 0 0 1.0008 234.021 34.5019)"/><path d="M430.928 555.897 430.928 565.132 429.567 565.132 429.567 555.897ZM432.969 564.225 430.247 569.668 427.526 564.225Z" fill="#156082" fill-rule="nonzero" fill-opacity="1" transform="matrix(1 0 0 1.0008 234.021 34.5019)"/><path d="M0.680412-3.52948e-06 0.680462 9.23501-0.680362 9.23506-0.680412 3.52948e-06ZM2.72169 8.32779 7.14342e-05 13.7711-2.7216 8.32784Z" fill="#156082" fill-rule="nonzero" fill-opacity="1" transform="matrix(-1 0 0 1.0008 664.268 673.468)"/><path d="M430.928-7.03438 430.965 0.282272 429.604 0.289178 429.567-7.02748ZM433.002-0.635292 430.308 4.82176 427.558-0.607667Z" fill="#156082" fill-rule="nonzero" fill-opacity="1" transform="matrix(1 0 0 1.0008 234.021 34.5019)"/><text fill="#000000" fill-opacity="1" font-family="Aptos,Aptos_MSFontService,sans-serif" font-style="normal" font-variant="normal" font-weight="400" font-stretch="normal" font-size="36" text-anchor="start" direction="ltr" writing-mode="lr-tb" unicode-bidi="normal" text-decoration="none" transform="matrix(0.453608 0 0 0.453972 682.074 680)">No</text><text fill="#000000" fill-opacity="1" font-family="Aptos,Aptos_MSFontService,sans-serif" font-style="normal" font-variant="normal" font-weight="400" font-stretch="normal" font-size="36" text-anchor="start" direction="ltr" writing-mode="lr-tb" unicode-bidi="normal" text-decoration="none" transform="matrix(0.453608 0 0 0.453972 568.909 631)">Yes</text></g></g></svg>